TITLE ""
FILE "DISC1Track20.mp3" MP3
  TRACK 01 AUDIO
    TITLE "DISC1Track20_01"
    INDEX 01 00:00:00
  TRACK 02 AUDIO
    TITLE "DISC1Track20_02"
    INDEX 01 00:03:01
  TRACK 03 AUDIO
    TITLE "DISC1Track20_03"
    INDEX 01 00:03:24
  TRACK 04 AUDIO
    TITLE "DISC1Track20_04"
    INDEX 01 00:05:62
  TRACK 05 AUDIO
    TITLE "DISC1Track20_05"
    INDEX 01 00:06:09
  TRACK 06 AUDIO
    TITLE "DISC1Track20_06"
    INDEX 01 00:08:51
  TRACK 07 AUDIO
    TITLE "DISC1Track20_07"
    INDEX 01 00:10:56
  TRACK 08 AUDIO
    TITLE "DISC1Track20_08"
    INDEX 01 00:12:57
  TRACK 09 AUDIO
    TITLE "DISC1Track20_09"
    INDEX 01 00:13:05
  TRACK 10 AUDIO
    TITLE "DISC1Track20_10"
    INDEX 01 00:16:23
  TRACK 11 AUDIO
    TITLE "DISC1Track20_11"
    INDEX 01 00:19:72
  TRACK 12 AUDIO
    TITLE "DISC1Track20_12"
    INDEX 01 00:23:41
  TRACK 13 AUDIO
    TITLE "DISC1Track20_13"
    INDEX 01 00:23:64
  TRACK 14 AUDIO
    TITLE "DISC1Track20_14"
    INDEX 01 00:26:41
  TRACK 15 AUDIO
    TITLE "DISC1Track20_15"
    INDEX 01 00:28:58
  TRACK 16 AUDIO
    TITLE "DISC1Track20_16"
    INDEX 01 00:30:68
  TRACK 17 AUDIO
    TITLE "DISC1Track20_17"
    INDEX 01 00:31:17
  TRACK 18 AUDIO
    TITLE "DISC1Track20_18"
    INDEX 01 00:34:05
  TRACK 19 AUDIO
    TITLE "DISC1Track20_19"
    INDEX 01 00:36:61
  TRACK 20 AUDIO
    TITLE "DISC1Track20_20"
    INDEX 01 00:39:28
  TRACK 21 AUDIO
    TITLE "DISC1Track20_21"
    INDEX 01 00:39:57
  TRACK 22 AUDIO
    TITLE "DISC1Track20_22"
    INDEX 01 00:42:28
  TRACK 23 AUDIO
    TITLE "DISC1Track20_23"
    INDEX 01 00:44:31
  TRACK 24 AUDIO
    TITLE "DISC1Track20_24"
    INDEX 01 00:46:36
  TRACK 25 AUDIO
    TITLE "DISC1Track20_25"
    INDEX 01 00:46:61
  TRACK 26 AUDIO
    TITLE "DISC1Track20_26"
    INDEX 01 00:48:49
  TRACK 27 AUDIO
    TITLE "DISC1Track20_27"
    INDEX 01 00:50:59
  TRACK 28 AUDIO
    TITLE "DISC1Track20_28"
    INDEX 01 00:52:60
  TRACK 29 AUDIO
    TITLE "DISC1Track20_29"
    INDEX 01 00:53:10
  TRACK 30 AUDIO
    TITLE "DISC1Track20_30"
    INDEX 01 00:56:25
  TRACK 31 AUDIO
    TITLE "DISC1Track20_31"
    INDEX 01 00:58:59
  TRACK 32 AUDIO
    TITLE "DISC1Track20_32"
    INDEX 01 01:01:20
  TRACK 33 AUDIO
    TITLE "DISC1Track20_33"
    INDEX 01 01:01:45
  TRACK 34 AUDIO
    TITLE "DISC1Track20_34"
    INDEX 01 01:03:19
  TRACK 35 AUDIO
    TITLE "DISC1Track20_35"
    INDEX 01 01:05:22
  TRACK 36 AUDIO
    TITLE "DISC1Track20_36"
    INDEX 01 01:07:11
  TRACK 37 AUDIO
    TITLE "DISC1Track20_37"
    INDEX 01 01:07:36
  TRACK 38 AUDIO
    TITLE "DISC1Track20_38"
    INDEX 01 01:10:36
  TRACK 39 AUDIO
    TITLE "DISC1Track20_39"
    INDEX 01 01:13:05
  TRACK 40 AUDIO
    TITLE "DISC1Track20_40"
    INDEX 01 01:15:39
  TRACK 41 AUDIO
    TITLE "DISC1Track20_41"
    INDEX 01 01:15:65
  TRACK 42 AUDIO
    TITLE "DISC1Track20_42"
    INDEX 01 01:17:46
  TRACK 43 AUDIO
    TITLE "DISC1Track20_43"
    INDEX 01 01:19:45
  TRACK 44 AUDIO
    TITLE "DISC1Track20_44"
    INDEX 01 01:21:38
  TRACK 45 AUDIO
    TITLE "DISC1Track20_45"
    INDEX 01 01:21:62
  TRACK 46 AUDIO
    TITLE "DISC1Track20_46"
    INDEX 01 01:24:66
  TRACK 47 AUDIO
    TITLE "DISC1Track20_47"
    INDEX 01 01:27:27
  TRACK 48 AUDIO
    TITLE "DISC1Track20_48"
    INDEX 01 01:29:59
  TRACK 49 AUDIO
    TITLE "DISC1Track20_49"
    INDEX 01 01:30:06
  TRACK 50 AUDIO
    TITLE "DISC1Track20_50"
    INDEX 01 01:34:31
  TRACK 51 AUDIO
    TITLE "DISC1Track20_51"
    INDEX 01 01:38:39
  TRACK 52 AUDIO
    TITLE "DISC1Track20_52"
    INDEX 01 01:42:38
  TRACK 53 AUDIO
    TITLE "DISC1Track20_53"
    INDEX 01 01:42:64
  TRACK 54 AUDIO
    TITLE "DISC1Track20_54"
    INDEX 01 01:45:37
  TRACK 55 AUDIO
    TITLE "DISC1Track20_55"
    INDEX 01 01:47:34
  TRACK 56 AUDIO
    TITLE "DISC1Track20_56"
    INDEX 01 01:49:23
